<?xml version="1.0" standalone="no"?>
<!DOCTYPE svg PUBLIC "-//W3C//DTD SVG 20010904//EN"
 "http://www.w3.org/TR/2001/REC-SVG-20010904/DTD/svg10.dtd">
<svg version="1.0" xmlns="http://www.w3.org/2000/svg"
 width="520.000000pt" height="520.000000pt" viewBox="0 0 520.000000 520.000000"
 preserveAspectRatio="xMidYMid meet">
<metadata>
Created by potrace 1.14, written by Peter Selinger 2001-2017
</metadata>
<g transform="translate(0.000000,520.000000) scale(0.100000,-0.100000)"
fill="#000000" stroke="none">
<path d="M0 2600 l0 -2600 2600 0 2600 0 0 2600 0 2600 -2600 0 -2600 0 0
-2600z m3115 1491 c93 -24 249 -98 283 -134 22 -24 23 -34 37 -343 8 -176 16
-354 19 -397 8 -113 -10 -95 -50 48 -158 576 -401 866 -686 817 -118 -20 -208
-79 -301 -194 -285 -355 -390 -1247 -227 -1927 78 -320 213 -542 384 -626 166
-82 294 -67 449 52 156 120 331 408 429 707 26 81 44 121 46 106 1 -14 -24
-195 -56 -403 -44 -283 -63 -382 -76 -396 -26 -29 -153 -87 -250 -115 -160
-47 -326 -57 -498 -31 -458 69 -756 410 -859 985 -27 146 -37 506 -20 661 34
300 115 540 249 744 58 88 188 224 267 280 128 91 309 163 465 185 103 14 303
5 395 -19z"/>
</g>
</svg>
